<svg xmlns="http://www.w3.org/2000/svg" viewBox="0 0 203.3 224"><defs><style>.cls-1{fill:#fff;}.cls-2{fill:#293549;}.cls-3{fill:#3bab5e;}.cls-4{fill:#f7f8f9;}.cls-5{fill:#424143;opacity:0.4;}.cls-5,.cls-6{isolation:isolate;}.cls-6{fill:#221f1f;opacity:0.1;}</style></defs><title>logoRecurso 2</title><g id="Capa_2" data-name="Capa 2"><g id="Controles_bootstrap" data-name="Controles bootstrap"><path class="cls-1" d="M0,60.2a9.4,9.4,0,0,1,4.4-7.4L97.2,1a10.6,10.6,0,0,1,8.9,0l92.8,51.8a9.4,9.4,0,0,1,4.4,7.4V163.7a9.4,9.4,0,0,1-4.4,7.4l-92.8,51.8a10.6,10.6,0,0,1-8.9,0L4.4,171.1A9.4,9.4,0,0,1,0,163.7Z"/><path class="cls-2" d="M48.5,37.5a6.2,6.2,0,0,1,6.3-6h94a6.1,6.1,0,0,1,6.2,6v149a6.1,6.1,0,0,1-6.2,6h-94a6.2,6.2,0,0,1-6.3-6Z"/><rect class="cls-3" x="54.8" y="52.6" width="94" height="113.74"/><path class="cls-4" d="M105.6,41.3H97.8a.3.3,0,0,1-.3-.3.3.3,0,0,1,.3-.3h7.8a.3.3,0,0,1,0,.6Z"/><path class="cls-4" d="M108.1,43H95.4c-.1,0-.4-.1-.4-.3s.2-.3.4-.3h12.7c.2,0,.4.1.4.3S108.4,43,108.1,43Z"/><path class="cls-4" d="M105.6,44.6H97.8a.3.3,0,0,1-.3-.3c0-.1.1-.4.3-.4h7.8c.2,0,.3.1.3.4A.3.3,0,0,1,105.6,44.6Z"/><path class="cls-4" d="M101.8,187a6.7,6.7,0,0,1-6.8-6.6,6.8,6.8,0,1,1,6.8,6.6Zm0-12.5a6.1,6.1,0,0,0-6.2,5.9,6.2,6.2,0,1,0,6.2-5.9Z"/><rect class="cls-4" x="62.5" y="58.6" width="78.3" height="21.4"/><rect class="cls-5" x="90" y="87.1" width="50.9" height="21.4"/><rect class="cls-5" x="62.5" y="86.8" width="22.4" height="21.63"/><rect class="cls-5" x="90" y="113.7" width="50.9" height="21.4"/><rect class="cls-5" x="62.5" y="113.5" width="22.4" height="21.63"/><rect class="cls-5" x="90" y="140.3" width="50.9" height="21.4"/><rect class="cls-5" x="62.5" y="140.2" width="22.4" height="21.63"/><path class="cls-6" d="M198.9,52.8,105.9,1a7.8,7.8,0,0,0-4.1-1V224a7.8,7.8,0,0,0,4.1-1l92.9-51.8a9.4,9.4,0,0,0,4.4-7.4V60.2A9.1,9.1,0,0,0,198.9,52.8Z"/></g></g></svg>