<svg xmlns="http://www.w3.org/2000/svg" viewBox="0 0 130 130"><defs><style>.cls-1{fill:#00c200;}.cls-2{fill:#fff;}</style></defs><title>logoRecurso 3</title><g id="Capa_2" data-name="Capa 2"><g id="Controles_bootstrap" data-name="Controles bootstrap"><circle class="cls-1" cx="65" cy="65" r="65"/><path class="cls-2" d="M50.7,73.9c-1.3-1.2-.7-.9-3.8-1.6A12.7,12.7,0,0,1,43,70.5l-6.8,15c-.7,1.4.6,3,2.3,2.9l8-.2,5.4,5.1a2.5,2.5,0,0,0,4-.6l7.9-17.2a12.2,12.2,0,0,1-5.3,1.3A11.9,11.9,0,0,1,50.7,73.9ZM93.8,85.5,87,70.5a12.7,12.7,0,0,1-3.9,1.8c-3.2.7-2.5.4-3.8,1.6a11.9,11.9,0,0,1-7.8,2.9,12.2,12.2,0,0,1-5.3-1.3l7.9,17.2a2.5,2.5,0,0,0,4,.6l5.4-5.1,8,.2C93.2,88.5,94.5,86.9,93.8,85.5ZM75.7,70.8c2.3-2.1,2.6-1.9,5.9-2.7a5.9,5.9,0,0,0,4.3-3.9c1.1-3.8.8-3.4,3.9-6.2a5.3,5.3,0,0,0,1.6-5.3c-1.2-3.8-1.2-3.3,0-7.1a5.5,5.5,0,0,0-1.6-5.4c-3.1-2.8-2.8-2.3-3.9-6.1a5.9,5.9,0,0,0-4.3-3.9c-4.2-1-3.7-.8-6.8-3.6a6.5,6.5,0,0,0-5.9-1.4c-4.2,1-3.6,1-7.8,0a6.5,6.5,0,0,0-5.9,1.4c-3.1,2.8-2.6,2.6-6.8,3.6a5.9,5.9,0,0,0-4.3,3.9c-1.1,3.8-.8,3.3-3.9,6.1a5.5,5.5,0,0,0-1.6,5.4c1.2,3.8,1.2,3.3,0,7.1A5.3,5.3,0,0,0,40.2,58c3.1,2.8,2.8,2.4,3.9,6.2a5.9,5.9,0,0,0,4.3,3.9c3.4.8,3.7.7,5.9,2.7a6.5,6.5,0,0,0,7.5.8,6.6,6.6,0,0,1,6.4,0A6.5,6.5,0,0,0,75.7,70.8ZM50.8,48.7c0-7.1,6.3-12.9,14.2-12.9s14.2,5.8,14.2,12.9-6.3,13-14.2,13-14.2-5.8-14.2-13Z"/></g></g></svg>