<svg xmlns="http://www.w3.org/2000/svg" viewBox="0 0 138 30"><defs><style>.cls-1{fill:#fff;}.cls-2{fill:#12afaf;}</style></defs><title>logoRecurso 1</title><g id="Capa_2" data-name="Capa 2"><g id="Controles_bootstrap" data-name="Controles bootstrap"><path class="cls-1" d="M44,24.9V4.7h3.4l2.9,7.9c.5,1.6,1.4,4.2,2,5.9h.1c-.1-2.1-.4-5.7-.4-9.4V4.7h3.3V24.9H51.9L49,17.2a61.3,61.3,0,0,1-1.8-6.1h-.1c.1,2,.2,5.2.2,9.2v4.6Z"/><path class="cls-1" d="M66.5,16H62.2v5.5H67v3.4H58.5V4.7h8.2V8.1H62.1v4.7h4.3V16Z"/><path class="cls-1" d="M71.6,8.3H68.3V4.7H78.6V8.3H75.2V24.9H71.6Z"/><path class="cls-1" d="M83,24.9,79.7,4.6h3.8l1,8.1c.3,2.3.4,4.6.6,7.1h.1c.3-2.5.7-4.7,1-7.1l1.4-8.1h2.9l1.3,8c.4,2.3.7,4.5,1,7.2h.1c.2-2.6.4-4.8.7-7.2l.9-8h3.6L94.7,24.9H90.9l-1.1-6.6c-.3-1.9-.6-4.2-.8-6.6h-.1c-.4,2.4-.7,4.7-1.1,6.7L86.5,25Z"/><path class="cls-1" d="M111.2,14.4c0,7.6-2.5,10.7-6.1,10.7s-6-4.9-6-10.4,2.1-10.3,6.3-10.3S111.2,9.8,111.2,14.4Zm-8.3.4c0,4.6.9,6.9,2.4,6.9s2.1-3,2.1-7.1-.4-6.8-2.1-6.8S102.9,10.4,102.9,14.8Z"/><path class="cls-1" d="M113.6,5a18.1,18.1,0,0,1,4-.4c2,0,3.8.3,5,1.5a5.7,5.7,0,0,1,1.5,4.2,5.3,5.3,0,0,1-2.9,5.1h0c1.3.5,2,1.8,2.3,4a33.9,33.9,0,0,0,1.3,5.5h-3.9a40.5,40.5,0,0,1-.9-4.8c-.4-2.5-.9-3.2-2.1-3.2h-.6V25h-3.6V5Zm3.6,8.8h.7c1.5,0,2.5-1.4,2.5-3.2s-.7-2.9-2.4-3h-.8v6.2Z"/><path class="cls-1" d="M126.7,4.7h3.7v9.1h0l1-2.6,2.5-6.5h4l-4.2,8.8L138,25h-4l-2.7-8.4-.9,1.7V25h-3.7V4.7Z"/><g id="Logo"><g id="xamagon"><path id="Logo-2" class="cls-2" d="M9.2,0A2.6,2.6,0,0,0,7.1,1.3L.3,13.9a3,3,0,0,0,0,2.6L7.1,28.9A2.4,2.4,0,0,0,9.2,30H22.8A2.4,2.4,0,0,0,25,28.9l6.8-12.5a2.4,2.4,0,0,0,0-2.6L25,1.3A2.6,2.6,0,0,0,22.8,0Zm.1,7.1h2.4l.3.3L16,15v.2h0l4-7.7.3-.3h2.4c.1.1.3.4.2.6L19,15.3l3.9,7.4c.1.2-.1.4-.2.5H20.3L20,23l-4-7.5h-.1l-4,7.5-.2.2H9.3c-.2,0-.3,0-.3-.2v-.3l4-7.4L9,7.8c0-.2,0-.4.2-.5h0Z"/></g></g></g></g></svg>